HIERARCHY
ROOT Hips
{
	OFFSET 0.00000 0.00000 0.00000
	CHANNELS 6 Xposition Yposition Zposition Zrotation Yrotation Xrotation 
	JOINT LHipJoint
	{
		OFFSET 0 0 0
		CHANNELS 3 Zrotation Yrotation Xrotation
		JOINT LeftUpLeg
		{
			OFFSET 1.30186 -1.90722 0.65024
			CHANNELS 3 Zrotation Yrotation Xrotation
			JOINT LeftLeg
			{
				OFFSET 2.56413 -7.04489 0.00000
				CHANNELS 3 Zrotation Yrotation Xrotation
				JOINT LeftFoot
				{
					OFFSET 2.79321 -7.67428 0.00000
					CHANNELS 3 Zrotation Yrotation Xrotation
					JOINT LeftToeBase
					{
						OFFSET 0.15723 -0.43198 2.08537
						CHANNELS 3 Zrotation Yrotation Xrotation
						End Site
						{
							OFFSET 0.00000 -0.00000 1.07411
						}
					}
				}
			}
		}
	}
	JOINT RHipJoint
	{
		OFFSET 0 0 0
		CHANNELS 3 Zrotation Yrotation Xrotation
		JOINT RightUpLeg
		{
			OFFSET -1.28627 -1.90723 0.65024
			CHANNELS 3 Zrotation Yrotation Xrotation
			JOINT RightLeg
			{
				OFFSET -2.56567 -7.04913 0.00000
				CHANNELS 3 Zrotation Yrotation Xrotation
				JOINT RightFoot
				{
					OFFSET -2.75597 -7.57198 0.00000
					CHANNELS 3 Zrotation Yrotation Xrotation
					JOINT RightToeBase
					{
						OFFSET -0.17500 -0.48081 2.22901
						CHANNELS 3 Zrotation Yrotation Xrotation
						End Site
						{
							OFFSET -0.00000 -0.00000 1.14762
						}
					}
				}
			}
		}
	}
	JOINT LowerBack
	{
		OFFSET 0 0 0
		CHANNELS 3 Zrotation Yrotation Xrotation
		JOINT Spine
		{
			OFFSET -0.04522 2.07467 -0.16566
			CHANNELS 3 Zrotation Yrotation Xrotation
			JOINT Spine1
			{
				OFFSET -0.01178 2.08825 -0.05393
				CHANNELS 3 Zrotation Yrotation Xrotation
				JOINT Neck
				{
					OFFSET 0 0 0
					CHANNELS 3 Zrotation Yrotation Xrotation
					JOINT Neck1
					{
						OFFSET -0.05182 1.80489 0.16014
						CHANNELS 3 Zrotation Yrotation Xrotation
						JOINT Head
						{
							OFFSET 0.14739 1.78840 -0.33342
							CHANNELS 3 Zrotation Yrotation Xrotation
							End Site
							{
								OFFSET 0.04364 1.83899 -0.13460
							}
						}
					}
				}
				JOINT LeftShoulder
				{
					OFFSET 0 0 0
					CHANNELS 3 Zrotation Yrotation Xrotation
					JOINT LeftArm
					{
						OFFSET 3.01264 1.29090 -0.06579
						CHANNELS 3 Zrotation Yrotation Xrotation
						JOINT LeftForeArm
						{
							OFFSET 5.55680 -0.00000 0.00000
							CHANNELS 3 Zrotation Yrotation Xrotation
							JOINT LeftHand
							{
								OFFSET 3.63979 -0.00000 -0.00000
								CHANNELS 3 Zrotation Yrotation Xrotation
								JOINT LeftFingerBase
								{
									OFFSET 0 0 0
									CHANNELS 3 Zrotation Yrotation Xrotation
									JOINT LeftHandIndex1
									{
										OFFSET 0.56942 -0.00000 -0.00000
										CHANNELS 3 Zrotation Yrotation Xrotation
										End Site
										{
											OFFSET 0.45908 -0.00000 -0.00000
										}
									}
								}
								JOINT LThumb
								{
									OFFSET 0 0 0
									CHANNELS 3 Zrotation Yrotation Xrotation
									End Site
									{
										OFFSET 0.46609 -0.00000 0.46609
									}
								}
							}
						}
					}
				}
				JOINT RightShoulder
				{
					OFFSET 0 0 0
					CHANNELS 3 Zrotation Yrotation Xrotation
					JOINT RightArm
					{
						OFFSET -3.15796 1.37283 -0.36748
						CHANNELS 3 Zrotation Yrotation Xrotation
						JOINT RightForeArm
						{
							OFFSET -5.34339 -0.00000 0.00000
							CHANNELS 3 Zrotation Yrotation Xrotation
							JOINT RightHand
							{
								OFFSET -3.65101 -0.00000 -0.00000
								CHANNELS 3 Zrotation Yrotation Xrotation
								JOINT RightFingerBase
								{
									OFFSET 0 0 0
									CHANNELS 3 Zrotation Yrotation Xrotation
									JOINT RightHandIndex1
									{
										OFFSET -0.69425 -0.00000 -0.00000
										CHANNELS 3 Zrotation Yrotation Xrotation
										End Site
										{
											OFFSET -0.55972 -0.00000 -0.00000
										}
									}
								}
								JOINT RThumb
								{
									OFFSET 0 0 0
									CHANNELS 3 Zrotation Yrotation Xrotation
									End Site
									{
										OFFSET -0.56827 -0.00000 0.56827
									}
								}
							}
						}
					}
				}
			}
		}
	}
}
MOTION
Frames: 8
Frame Time: .0083333
15.9283 18.2183 -15.5806 0 0 0 0 0 0 -21 0 0 0 0 0 0 0 0 0 0 0 0 0 0 21 0 0 0 0 0 0 0 0 0 0 0 0 0 0 0 0 0 0 0 0 0 0 -16 0 0 21 0 0 11 0 0 0 -8 0 0 0 0 0 0 0 0 0 0 0 0 0 0 0 0 0 0 0 0 8 0 0 0 0 0 0 0 0 0 0 0 0 0 0 0 0 0
15.9283 18.2183 -15.5806 2.9909 -2.1455 -0.0274 0.0000 0.0000 0.0000 -28.9517 -0.6058 -1.5965 1.1842 6.9062 19.4377 0.7342 -3.1504 -15.4265 0.0399 -1.2893 -3.5451 0.0000 0.0000 0.0000 7.0937 19.1894 -44.0116 -4.4173 -12.6959 38.2404 -0.1717 -2.9236 -9.4713 -0.1213 2.2451 -6.1834 -5.6433 1.3806 2.9854 -0.9075 1.6699 1.0963 2.1672 0.8301 -0.6791 -3.3560 -3.9504 -12.4881 3.5259 -5.3621 15.6785 1.1658 -2.4685 7.0403 0.0000 -0.0000 0.0000 -94.0699 5.0380 -5.3285 7.1475 -12.1618 -0.7624 -0.0000 -0.0000 9.2387 21.1825 19.6450 7.4228 -7.1250 0.0000 -0.0000 -7.2079 50.7895 -1.0329 0.0000 -0.0000 0.0000 84.0697 45.4676 14.8254 -18.5715 28.8828 -4.8221 0.0000 -0.0000 -11.4867 -18.1063 28.8849 -8.9754 7.1250 -0.0000 -0.0000 7.3354 -0.0648 7.3879
15.9314 18.2301 -15.4454 3.2074 -1.7164 -0.0858 0.0000 0.0000 0.0000 -29.2741 -0.2889 -0.2341 1.0144 6.4080 17.9730 0.7017 -2.7874 -15.1231 0.0877 -1.9101 -5.2574 0.0000 0.0000 0.0000 6.6188 18.9683 -44.6024 -4.2235 -12.4520 37.3503 -0.1836 -2.9910 -9.7688 -0.1347 2.3658 -6.5178 -5.7656 1.3195 3.0636 -0.9075 1.5736 0.9522 2.2355 0.7895 -0.8668 -3.6624 -4.0504 -11.5751 3.6220 -5.4677 15.2061 1.2554 -2.5444 6.7443 -0.0000 -0.0000 0.0000 -94.3701 6.0559 -8.7260 6.8031 -11.5948 -0.6915 -0.0000 -0.0000 12.3836 22.0936 19.1667 7.5913 -7.1250 0.0000 -0.0000 -6.1728 50.4412 -0.8305 -0.0000 -0.0000 0.0000 83.4073 45.7515 14.5600 -18.8820 29.2718 -4.9730 0.0000 -0.0000 -11.5584 -18.0122 28.8046 -8.9040 7.1250 -0.0000 -0.0000 7.3819 -0.1625 7.4229
15.9333 18.2426 -15.3145 3.5255 -1.3983 -0.1175 0.0000 0.0000 0.0000 -29.7308 -0.2306 0.9988 0.8847 5.9958 16.7722 0.6910 -2.2628 -15.0961 0.1562 -2.5467 -7.0191 0.0000 0.0000 0.0000 5.8927 19.1002 -45.0259 -3.9874 -12.1437 36.2421 -0.1759 -3.2113 -9.7769 -0.0876 1.9094 -5.2555 -6.1235 1.2623 3.0729 -0.9303 1.4795 0.8057 2.4136 0.7500 -1.0236 -3.8266 -4.1272 -10.6999 3.7583 -5.5815 14.8331 1.3337 -2.6116 6.4862 0.0000 0.0000 0.0000 -94.6753 8.0840 -9.4584 7.0982 -12.0808 -0.7521 -0.0000 -0.0000 12.5679 22.0622 19.2289 7.6029 -7.1250 0.0000 -0.0000 -6.2212 50.5014 -0.8463 0.0000 0.0000 0.0000 82.7021 45.7541 14.8286 -19.4197 29.9369 -5.2387 0.0000 -0.0000 -12.2675 -17.6175 28.6239 -8.6499 7.1250 -0.0000 -0.0000 7.5949 -0.4134 7.6072
15.9261 18.2532 -15.1869 3.7319 -1.0925 0.0831 0.0000 0.0000 0.0000 -30.0121 -0.3920 1.9518 0.7683 5.5972 15.6202 0.6772 -1.8324 -15.0285 0.1478 -2.4774 -6.8269 0.0000 0.0000 0.0000 5.1064 19.5163 -45.5885 -3.7373 -11.8024 35.0363 -0.1564 -3.6058 -9.6893 -0.0631 1.6210 -4.4593 -6.4274 1.1637 2.9019 -0.9878 1.3482 0.7265 2.5320 0.6861 -1.0033 -3.6640 -4.1412 -10.7137 3.7900 -5.6403 14.9999 1.3107 -2.6269 6.5403 -0.0000 -0.0000 0.0000 -95.0883 11.4371 -7.0730 8.2565 -13.9677 -1.0131 -0.0000 -0.0000 9.5427 21.5741 19.0224 7.3437 -7.1250 0.0000 -0.0000 -6.6419 50.2046 -0.8554 -0.0000 -0.0000 0.0000 82.1231 46.0591 15.1570 -19.8986 30.5200 -5.4798 0.0000 -0.0000 -13.0826 -17.4227 28.7549 -8.5849 7.1250 -0.0000 -0.0000 7.7222 -0.3142 7.7506
15.9175 18.2671 -15.0615 3.5883 -1.0201 0.5335 0.0000 0.0000 0.0000 -29.9239 -0.6098 2.6096 0.6618 5.2029 14.4881 0.6646 -1.2056 -15.0364 0.1447 -2.4514 -6.7549 0.0000 0.0000 0.0000 4.5664 20.2848 -46.3173 -3.4789 -11.4327 33.7535 -0.1123 -4.4041 -9.4579 -0.0402 1.2935 -3.5567 -6.3019 1.1396 2.6251 -1.0065 1.3387 0.6593 2.4478 0.6801 -0.9134 -3.1699 -4.0253 -11.1929 3.6201 -5.5320 15.1370 1.1764 -2.5531 6.6440 0.0000 -0.0000 0.0000 -94.8473 11.4746 -9.6886 7.7163 -13.0920 -0.8868 -0.0000 -0.0000 11.8252 22.1256 18.8091 7.4682 -7.1250 0.0000 -0.0000 -6.0431 50.0709 -0.7578 0.0000 -0.0000 0.0000 81.6945 46.8440 14.9723 -20.0663 30.7222 -5.5652 0.0000 -0.0000 -13.1352 -17.4248 28.9582 -8.6406 7.1250 -0.0000 -0.0000 7.7415 -0.1087 7.7983
15.9111 18.2794 -14.9358 3.3969 -0.7649 0.8600 0.0000 0.0000 0.0000 -29.7643 -0.6760 3.3887 0.5688 4.8302 13.4248 0.6463 -0.6417 -14.9837 0.1627 -2.5991 -7.1646 0.0000 0.0000 0.0000 4.0779 20.8321 -46.8883 -3.2224 -11.0466 32.4371 -0.0521 -5.4290 -9.1680 -0.0195 0.9023 -2.4800 -6.0661 1.1482 2.4327 -1.0054 1.3717 0.6642 2.3201 0.6929 -0.7980 -2.7967 -4.0070 -11.4509 3.4690 -5.5367 14.9787 1.0633 -2.5446 6.6232 0.0000 0.0000 0.0000 -93.2488 7.9939 -19.1467 5.3889 -9.2392 -0.4358 -0.0000 -0.0000 21.6008 23.0470 19.4103 8.0476 -7.1250 0.0000 -0.0000 -5.2987 50.8578 -0.7666 0.0000 0.0000 0.0000 80.8837 47.5546 14.4629 -20.2240 30.9113 -5.6460 0.0000 -0.0000 -13.2806 -17.1580 29.1407 -8.5502 7.1250 -0.0000 -0.0000 7.9156 0.0297 7.9964
15.9074 18.2862 -14.8039 3.5648 -0.2473 0.8879 0.0000 0.0000 0.0000 -29.9494 -0.5772 4.4562 0.4903 4.4897 12.4587 0.6304 -0.5005 -14.8386 0.1443 -2.4482 -6.7459 0.0000 0.0000 0.0000 3.4109 20.8714 -47.0956 -2.9798 -10.6622 31.1491 -0.0149 -5.9512 -8.8936 -0.0164 0.8275 -2.2743 -6.1945 0.9844 2.4036 -1.1026 1.1544 0.7179 2.3004 0.5811 -0.7082 -2.5668 -3.9964 -11.3717 3.4073 -5.5464 14.7366 1.0086 -2.5449 6.5241 0.0000 -0.0000 0.0000 -93.6063 9.4751 -20.2222 5.7164 -9.7884 -0.4899 -0.0000 -0.0000 22.3718 22.8400 19.4736 7.9927 -7.1250 0.0000 -0.0000 -5.5214 50.8894 -0.8033 0.0000 -0.0000 0.0000 80.4147 47.9699 14.6994 -20.6588 31.4279 -5.8710 0.0000 -0.0000 -13.8145 -17.7049 29.1425 -8.8366 7.1250 -0.0000 -0.0000 7.5969 0.1255 7.6812
